<?xml version="1.0" encoding="UTF-8"?>
<svg width="480px" height="480px" viewBox="0 0 480 480" version="1.1" xmlns="http://www.w3.org/2000/svg" xmlns:xlink="http://www.w3.org/1999/xlink">
    <title>暂无数据</title>
    <defs>
        <linearGradient x1="50%" y1="100.122278%" x2="50%" y2="-0.0579832828%" id="linearGradient-1">
            <stop stop-color="#FFFFFF" stop-opacity="0.1" offset="0%"></stop>
            <stop stop-color="#D9E9FF" offset="100%"></stop>
        </linearGradient>
        <linearGradient x1="50.0843871%" y1="100%" x2="50.0843871%" y2="0.00649473815%" id="linearGradient-2">
            <stop stop-color="#FFFFFF" stop-opacity="0.1" offset="0%"></stop>
            <stop stop-color="#F8FBFF" stop-opacity="0.27" offset="14%"></stop>
            <stop stop-color="#EDF5FF" stop-opacity="0.52" offset="37%"></stop>
            <stop stop-color="#E4F0FF" stop-opacity="0.73" offset="58%"></stop>
            <stop stop-color="#DEECFF" stop-opacity="0.88" offset="76%"></stop>
            <stop stop-color="#DAEAFF" stop-opacity="0.97" offset="91%"></stop>
            <stop stop-color="#D9E9FF" offset="100%"></stop>
        </linearGradient>
        <linearGradient x1="50.0045895%" y1="99.9311993%" x2="50.0045895%" y2="-0.0811277354%" id="linearGradient-3">
            <stop stop-color="#FFFFFF" stop-opacity="0.1" offset="0%"></stop>
            <stop stop-color="#FEFEFF" stop-opacity="0.13" offset="9%"></stop>
            <stop stop-color="#FBFCFF" stop-opacity="0.21" offset="23%"></stop>
            <stop stop-color="#F5F9FF" stop-opacity="0.33" offset="40%"></stop>
            <stop stop-color="#EEF5FF" stop-opacity="0.51" offset="59%"></stop>
            <stop stop-color="#E4EFFF" stop-opacity="0.74" offset="79%"></stop>
            <stop stop-color="#D9E9FF" offset="100%"></stop>
        </linearGradient>
        <linearGradient x1="50%" y1="100%" x2="50%" y2="0%" id="linearGradient-4">
            <stop stop-color="#FFFFFF" stop-opacity="0.1" offset="0%"></stop>
            <stop stop-color="#FBFDFF" stop-opacity="0.19" offset="13%"></stop>
            <stop stop-color="#F1F7FF" stop-opacity="0.43" offset="41%"></stop>
            <stop stop-color="#E1EEFF" stop-opacity="0.82" offset="81%"></stop>
            <stop stop-color="#D9E9FF" offset="100%"></stop>
        </linearGradient>
        <linearGradient x1="36.9834497%" y1="54.100057%" x2="26.4788126%" y2="33.1441492%" id="linearGradient-5">
            <stop stop-color="#FFFFFF" stop-opacity="0" offset="0%"></stop>
            <stop stop-color="#C1DDFD" offset="100%"></stop>
        </linearGradient>
        <linearGradient x1="0%" y1="95.8519161%" x2="169.600204%" y2="95.8519161%" id="linearGradient-6">
            <stop stop-color="#F6FBFF" offset="0%"></stop>
            <stop stop-color="#ACD2FA" offset="100%"></stop>
        </linearGradient>
        <linearGradient x1="34.4908062%" y1="50%" x2="71.9867412%" y2="46.8956483%" id="linearGradient-7">
            <stop stop-color="#EDF5FF" offset="0%"></stop>
            <stop stop-color="#79B4F6" offset="100%"></stop>
        </linearGradient>
        <linearGradient x1="64.7498302%" y1="54.5906566%" x2="35.2501698%" y2="45.4093434%" id="linearGradient-8">
            <stop stop-color="#D9E9FF" offset="0%"></stop>
            <stop stop-color="#DFECFF" offset="31%"></stop>
            <stop stop-color="#F0F6FF" offset="73%"></stop>
            <stop stop-color="#FFFFFF" offset="100%"></stop>
        </linearGradient>
        <linearGradient x1="65.6073002%" y1="56.7610036%" x2="34.3612335%" y2="43.2389964%" id="linearGradient-9">
            <stop stop-color="#D9E9FF" offset="0%"></stop>
            <stop stop-color="#DFECFF" offset="31%"></stop>
            <stop stop-color="#F0F6FF" offset="73%"></stop>
            <stop stop-color="#FFFFFF" offset="100%"></stop>
        </linearGradient>
        <linearGradient x1="6.96543784%" y1="52.1238751%" x2="120.348545%" y2="50%" id="linearGradient-10">
            <stop stop-color="#F5FBFF" offset="0%"></stop>
            <stop stop-color="#89BEF8" offset="100%"></stop>
        </linearGradient>
        <linearGradient x1="24.2813054%" y1="50%" x2="100%" y2="50%" id="linearGradient-11">
            <stop stop-color="#EDF7FF" offset="0%"></stop>
            <stop stop-color="#78B3F6" offset="100%"></stop>
        </linearGradient>
        <linearGradient x1="64.7498302%" y1="58.828984%" x2="35.2501698%" y2="41.171016%" id="linearGradient-12">
            <stop stop-color="#D9E9FF" offset="0%"></stop>
            <stop stop-color="#DFECFF" offset="31%"></stop>
            <stop stop-color="#F0F6FF" offset="73%"></stop>
            <stop stop-color="#FFFFFF" offset="100%"></stop>
        </linearGradient>
        <linearGradient x1="65.6073002%" y1="60.9036219%" x2="34.3612335%" y2="39.0963781%" id="linearGradient-13">
            <stop stop-color="#D9E9FF" offset="0%"></stop>
            <stop stop-color="#DFECFF" offset="31%"></stop>
            <stop stop-color="#F0F6FF" offset="73%"></stop>
            <stop stop-color="#FFFFFF" offset="100%"></stop>
        </linearGradient>
        <linearGradient x1="65.6073002%" y1="58.6735166%" x2="34.3612335%" y2="41.3264834%" id="linearGradient-14">
            <stop stop-color="#D9E9FF" offset="0%"></stop>
            <stop stop-color="#DFECFF" offset="31%"></stop>
            <stop stop-color="#F0F6FF" offset="73%"></stop>
            <stop stop-color="#FFFFFF" offset="100%"></stop>
        </linearGradient>
        <linearGradient x1="100.018043%" y1="50.0082504%" x2="30.9743362%" y2="50.0082504%" id="linearGradient-15">
            <stop stop-color="#3E65A3" offset="0%"></stop>
            <stop stop-color="#143E81" offset="100%"></stop>
        </linearGradient>
        <linearGradient x1="85.7353055%" y1="90.5057429%" x2="47.753857%" y2="33.3834958%" id="linearGradient-16">
            <stop stop-color="#3E65A3" offset="0%"></stop>
            <stop stop-color="#143E81" offset="100%"></stop>
        </linearGradient>
        <linearGradient x1="50.0231547%" y1="100.015849%" x2="50.0231547%" y2="52.0632389%" id="linearGradient-17">
            <stop stop-color="#40A9FF" offset="0%"></stop>
            <stop stop-color="#53A4FC" offset="100%"></stop>
        </linearGradient>
        <linearGradient x1="50.0046264%" y1="99.9681814%" x2="50.0046264%" y2="52.0238731%" id="linearGradient-18">
            <stop stop-color="#40A9FF" offset="0%"></stop>
            <stop stop-color="#53A4FC" offset="100%"></stop>
        </linearGradient>
        <linearGradient x1="-0.0127226463%" y1="49.9578313%" x2="78.6789936%" y2="49.9578313%" id="linearGradient-19">
            <stop stop-color="#003A8C" offset="0%"></stop>
            <stop stop-color="#272F7C" offset="100%"></stop>
        </linearGradient>
        <linearGradient x1="99.9825034%" y1="49.9653979%" x2="21.3115669%" y2="49.9653979%" id="linearGradient-20">
            <stop stop-color="#003A8C" offset="0%"></stop>
            <stop stop-color="#272F7C" offset="100%"></stop>
        </linearGradient>
        <linearGradient x1="50.0042822%" y1="100.003698%" x2="50.0042822%" y2="52.0508348%" id="linearGradient-21">
            <stop stop-color="#40A9FF" offset="0%"></stop>
            <stop stop-color="#53A4FC" offset="100%"></stop>
        </linearGradient>
        <linearGradient x1="-0.00952533676%" y1="50.0474607%" x2="78.6804243%" y2="50.0474607%" id="linearGradient-22">
            <stop stop-color="#001A3F" offset="0%"></stop>
            <stop stop-color="#003A8C" offset="100%"></stop>
        </linearGradient>
    </defs>
    <g id="组件设计" stroke="none" stroke-width="1" fill="none" fill-rule="evenodd">
        <g id="基础-缺省图" transform="translate(-837.000000, -2513.000000)">
            <g id="暂无数据" transform="translate(837.000000, 2513.000000)">
                <rect id="矩形" fill="#F4F7F9" opacity="0" x="0" y="0" width="480" height="480"></rect>
                <polygon id="路径" fill="#E4EFFF" fill-rule="nonzero" points="93.8769231 278.349682 95.9736264 300.799664 82.8395604 299.306523"></polygon>
                <polygon id="路径" fill="#F3F8FF" fill-rule="nonzero" points="93.8769231 278.349682 107.70989 296.06918 95.9736264 300.799664"></polygon>
                <polygon id="路径" fill="#E4EFFF" fill-rule="nonzero" points="46.8263736 284.150472 49.5032967 312.876935 32.9538462 310.960957"></polygon>
                <polygon id="路径" fill="#F3F8FF" fill-rule="nonzero" points="46.8263736 284.150472 64.2989011 306.851514 49.5032967 312.876935"></polygon>
                <polygon id="路径" fill="#E4EFFF" fill-rule="nonzero" points="69.2307692 264.277151 73.6615385 311.793417 43.8725275 308.83356"></polygon>
                <polygon id="路径" fill="#F3F8FF" fill-rule="nonzero" points="69.2307692 264.277151 100.391209 301.61891 73.6615385 311.793417"></polygon>
                <path d="M78.356044,160.100777 C76.6020081,150.773316 68.3894907,144.073809 58.9186813,144.244404 C53.8515331,144.220889 48.9608371,146.107567 45.2175824,149.529862 C43.1200323,148.582489 40.8458344,148.091596 38.5450549,148.089575 C31.255123,147.974465 24.8730003,152.971676 23.221978,160.087564 C17.6193859,161.328773 13.5794035,166.232383 13.4241758,171.979844 C13.6396005,178.973942 19.4450493,184.484411 26.4263736,184.321388 L75.1120879,184.321388 C82.0962094,184.491696 87.9059698,178.977135 88.1142857,171.979844 C87.9621542,166.247421 83.940912,161.352215 78.356044,160.100777 L78.356044,160.100777 Z" id="路径" fill="url(#linearGradient-1)" fill-rule="nonzero"></path>
                <path d="M360.61978,95.737115 C358.096088,91.8301913 353.828283,89.4033952 349.186813,89.2360019 C346.484078,85.1026934 341.853819,82.648153 336.923077,82.7348888 C332.969883,82.6954629 329.167396,84.2528919 326.373626,87.0557505 C325.094519,86.6467296 323.76024,86.4372673 322.417582,86.4347093 C316.206593,86.4347093 311.076923,90.7423574 310.549451,96.1863789 C305.814821,97.3171557 302.405854,101.46157 302.202198,106.334458 C302.202198,112.201316 307.569231,116.984655 314.07033,116.984655 L359.657143,116.984655 C366.250549,116.984655 371.525275,112.201316 371.525275,106.334458 C371.630769,100.7583 366.751648,96.1731653 360.61978,95.737115 Z" id="路径" fill="url(#linearGradient-2)" fill-rule="nonzero"></path>
                <path d="M445.186813,80.4092874 C440.718234,71.1746843 431.389279,65.2982525 421.147253,65.2664507 C415.442784,65.2787512 409.894017,67.1321037 405.323077,70.5519085 C399.884003,59.9215996 388.071591,54.1918165 376.37665,56.5110219 C364.681709,58.8302274 355.937731,68.6365163 354.949451,80.5414238 C342.36888,84.5192395 334.562478,97.0953814 336.563474,110.161299 C338.564471,123.227217 349.775014,132.879121 362.967033,132.893932 L437.393407,132.893932 C450.661726,132.919121 461.940148,123.187736 463.885086,110.03601 C465.830023,96.8842839 457.852681,84.2936678 445.147253,80.4621419 L445.186813,80.4092874 Z" id="路径" fill="url(#linearGradient-3)" fill-rule="nonzero"></path>
                <ellipse id="椭圆形" fill="url(#linearGradient-4)" fill-rule="nonzero" cx="240" cy="347.562752" rx="240" ry="75.978456"></ellipse>
                <g id="编组-16" transform="translate(136.000000, 142.000000)" fill-rule="nonzero">
                    <polygon id="路径" fill="url(#linearGradient-5)" points="188.185361 171.870309 278.604742 235.885361 119.594227 287.05732 48.0748454 147.386598 153.452784 151.183299"></polygon>
                    <path d="M41.2299654,35.3783505 L0.191423634,35.3783505 L0.191423634,17.3690722 C0.191423634,17.3690722 -0.843845701,0.0501030928 24.1422052,0.0501030928 C48.2674704,0.0501030928 41.2299654,35.3783505 41.2299654,35.3783505 Z" id="路径" fill="url(#linearGradient-6)"></path>
                    <path d="M23.1853608,0.0501030928 C23.1853608,0.0501030928 38.9471583,1.97628866 38.9471583,22.3181443 C38.9471583,42.66 38.9471583,140.166186 38.9471583,140.166186 C38.9471583,140.166186 38.6074392,155.375258 55.0018172,155.375258 C71.3903379,155.375258 102.246209,155.375258 102.246209,155.375258 L126.155409,84.8134021 L126.155409,27.2616495 C126.155409,27.2616495 127.965292,0.0556701031 103.446941,0.0556701031 C81.4647681,0.0501030928 23.1853608,0.0501030928 23.1853608,0.0501030928 Z" id="路径" fill="url(#linearGradient-7)"></path>
                    <rect id="矩形" fill="url(#linearGradient-8)" x="53" y="18" width="58.2461538" height="10.4703297" rx="5.23516484"></rect>
                    <rect id="矩形" fill="url(#linearGradient-9)" x="53" y="38.7208791" width="41.9076923" height="10.4703297" rx="5.23516484"></rect>
                    <rect id="矩形" fill="url(#linearGradient-9)" x="53" y="59.4417582" width="41.9076923" height="10.4703297" rx="5.23516484"></rect>
                    <path d="M61.1853608,155.375258 L134.185361,155.375258 L126.101626,96.5430928 C126.101626,96.5430928 115.935361,82.2470103 95.9430754,82.2470103 C73.4224229,82.2470103 74.5194174,103.551959 74.5194174,104.654227 C74.5194174,105.756495 74.5194174,141.357526 74.5194174,141.357526 C74.5194174,141.357526 74.3668941,155.375258 61.1853608,155.375258 Z" id="路径" fill="url(#linearGradient-10)"></path>
                    <path d="M188.185361,171.870309 L121.065901,171.870309 L121.065901,105.706392 C121.065901,105.706392 122.706247,82.2470103 96.1853608,82.2470103 C126.274001,82.2470103 158.870027,82.2470103 158.870027,82.2470103 C158.870027,82.2470103 188.185361,81.5121649 188.185361,111.568454 C188.185361,141.624742 188.185361,171.870309 188.185361,171.870309 Z" id="路径" fill="url(#linearGradient-11)"></path>
                    <rect id="矩形" fill="url(#linearGradient-12)" x="134" y="103" width="42" height="10.4703297" rx="5.23516484"></rect>
                    <rect id="矩形" fill="url(#linearGradient-13)" x="134" y="123.720879" width="33" height="10.4703297" rx="5.23516484"></rect>
                    <rect id="矩形" fill="url(#linearGradient-14)" x="134" y="144.441758" width="37" height="10.4703297" rx="5.23516484"></rect>
                </g>
                <g id="编组" transform="translate(260.000000, 181.000000)" fill-rule="nonzero">
                    <path d="M27.8641509,54.9313208 C27.8641509,54.9313208 27.405283,55.5532075 28.7396226,57.805283 C26.7109434,58.5056604 24.0362264,57.6724528 24.0362264,57.6724528 L24.1811321,53.9230189 L27.8641509,54.9313208 Z" id="路径" fill="#FECCA9"></path>
                    <path d="M22.8286792,59.9245283 L34.6264151,60.5283019 C34.6264151,60.5283019 35.405283,57.0203774 30.7562264,56.9237736 C29.8143396,56.9056604 29.0898113,55.8067925 28.3169811,55.8007547 C26.4633962,57.3101887 23.4022642,56.8935849 23.4022642,56.8935849 L22.8286792,59.9245283 Z" id="路径" fill="#003A8C"></path>
                    <polygon id="路径" fill="#001529" points="22.5509434 60.685283 27.7192453 61.4158491 27.9607547 60.4739623 34.6083019 61.2467925 34.7833962 60.4498113 22.8588679 58.9464151"></polygon>
                    <path d="M33.7811321,56.64 C33.7811321,56.64 32.9901887,57.5577358 34.8679245,59.3992453 C33.0928302,60.5886792 30.8045283,60.2686792 30.8045283,60.2686792 L29.965283,56.6098113 L33.7811321,56.64 Z" id="路径" fill="#FECCA9"></path>
                    <path d="M29.6815094,62.7924528 L41.485283,62.514717 C41.485283,62.514717 41.9743396,58.9524528 37.3313208,59.2120755 C36.3954717,59.2664151 35.5803774,58.2218868 34.8075472,58.2701887 C33.0867925,59.9184906 30.0015094,59.725283 30.0015094,59.725283 L29.6815094,62.7924528 Z" id="路径" fill="#003A8C"></path>
                    <polygon id="路径" fill="#001529" points="29.4701887 63.5713208 34.6807547 63.909434 34.8437736 62.9554717 41.5275472 63.2271698 41.6422642 62.4241509 29.6392453 61.8143396"></polygon>
                    <path d="M17.2316981,34.9283019 C17.2316981,34.9283019 32.2113208,30.8830189 33.6362264,34.3486792 C35.0611321,37.8143396 32.1328302,43.4113208 30.6777358,47.6075472 C29.2226415,51.8037736 28.1237736,55.5592453 28.1237736,55.5592453 L23.4445283,55.1245283 L25.1773585,40.4709434 C25.1773585,40.4709434 24.1690566,37.8686792 20.6550943,37.5788679 C17.1471698,37.2950943 17.2316981,34.9283019 17.2316981,34.9283019 Z" id="路径" fill="url(#linearGradient-15)"></path>
                    <path d="M11.8279245,32.845283 C11.8279245,32.845283 27.0732075,30.8588679 28.8543396,33.3343396 C30.6354717,35.8098113 34.1615094,57.6422642 34.1615094,57.6422642 L30.2430189,59.2060377 C30.2430189,59.2060377 24.2354717,42.9101887 22.8166038,42.1615094 C21.6030189,41.5215094 18.0467925,42.2098113 14.6716981,43.2120755 C11.2966038,44.2143396 5.54264151,45.4037736 2.93433962,39.04 C4.11773585,32.1932075 11.8279245,32.845283 11.8279245,32.845283 Z" id="路径" fill="url(#linearGradient-16)"></path>
                    <path d="M14.0015094,5.18037736 C14.0015094,5.18037736 16,7.80679245 14.5992453,11.9667925 C14.2430189,12.7637736 13.554717,14.1464151 11.6588679,13.1018868 C11.4958491,13.0656604 11.3871698,13.3011321 11.3449057,13.5245283 C11.3026415,13.7479245 10.789434,17.5818868 10.789434,17.5818868 L5.33132075,17.6120755 C5.33132075,17.6120755 7.86113208,8.11471698 7.81283019,6.2490566 C7.79471698,5.2890566 8.81509434,3.61056604 10.8377358,3.52 C12.8603774,3.42943396 14.0015094,5.18037736 14.0015094,5.18037736 Z" id="路径" fill="#FECCA9"></path>
                    <path d="M12.5283019,1.66037736 C12.5283019,1.66037736 13.0837736,0.615849057 14.6113208,1.37660377 C16.1388679,2.13735849 15.4083019,3.48377358 15.3539623,3.82188679 C15.2996226,4.16 15.5109434,4.41962264 15.9637736,4.23849057 C16.4166038,4.05132075 17.2196226,3.9245283 17.7750943,4.9509434 C18.330566,5.97735849 17.1532075,8.70037736 15.3660377,8.42867925 C13.5849057,8.16301887 12.685283,7.24528302 12.045283,6.59320755 C11.3992453,5.94113208 10.1615094,5.16830189 9.98037736,5.93509434 C9.79924528,6.70188679 9.84754717,8.31396226 9.49132075,8.07849057 C9.15924528,7.85509434 9.35245283,6.20679245 8.36226415,6.20075472 C7.37207547,6.19471698 7.4445283,7.62566038 8.09660377,8.39245283 C8.37433962,8.71849057 8.35622642,8.65811321 8.25962264,8.99018868 C8.16301887,9.32226415 8.18716981,9.55169811 7.8309434,9.94415094 C7.46867925,10.3426415 7.32377358,10.5539623 7.02792453,9.98037736 C6.73207547,9.40075472 6.17660377,8.30792453 6.47245283,5.98339623 C6.59320755,5.33132075 6.38792453,5.2890566 6.04981132,4.92075472 C5.71169811,4.55245283 5.22264151,3.97283019 5.71773585,3.13962264 C6.21283019,2.30037736 6.68981132,2.4090566 7.30566038,2.43320755 C7.92754717,2.46339623 7.89735849,2.23396226 7.90339623,1.86566038 C7.90943396,1.49735849 8.36226415,0.078490566 9.58792453,0.108679245 C10.8135849,0.132830189 11.3388679,0.827169811 11.6528302,1.41283019 C11.9667925,1.99849057 12.3290566,1.85358491 12.5283019,1.66037736 Z" id="路径" fill="#003A8C"></path>
                    <path d="M17.4550943,23.4445283 C17.4550943,23.4445283 17.6603774,25.7207547 18.2158491,26.2581132 C18.7713208,26.7954717 22.7381132,30.1101887 24.8573585,31.1124528 C24.434717,32.3441509 24.1630189,32.5011321 24.1630189,32.5011321 C24.1630189,32.5011321 18.3426415,30.8830189 16.4528302,28.9932075 C15.794717,28.2626415 14.5932075,26.6626415 14.2550943,24.2898113 C15.7584906,22.7743396 17.4550943,23.4445283 17.4550943,23.4445283 Z" id="路径" fill="#FECCA9"></path>
                    <path d="M18.2098113,24.4649057 L13.44,27.1818868 C13.44,27.1818868 9.6845283,18.6566038 12.6007547,15.9939623 C13.5245283,15.2150943 16.0422642,16.3381132 16.9660377,19.1758491 C17.8958491,22.0075472 18.2098113,24.4649057 18.2098113,24.4649057 Z" id="路径" fill="url(#linearGradient-17)"></path>
                    <path d="M1.27396226,16.7728302 C1.27396226,16.7728302 3.30867925,12.8664151 6.46641509,13.12 C6.90113208,15.3177358 9.40075472,15.4143396 11.1577358,14.8166038 C12.4437736,14.9916981 13.1683019,15.0762264 14.0498113,16.3743396 C14.9313208,17.6724528 14.8407547,17.9803774 15.4445283,20.7154717 C15.8792453,23.5049057 14.7864151,25.8716981 15.2573585,28.4196226 C15.7222642,30.9735849 18.125283,31.3660377 16.8754717,32.4286792 C15.6256604,33.4913208 7.78264151,34.0830189 4.17811321,39.4022642 C3.06716981,41.0445283 2.19169811,37.3313208 2.17358491,34.5298113 C2.1554717,31.7222642 3.61660377,24.4830189 1.27396226,16.7728302 Z" id="路径" fill="url(#linearGradient-18)"></path>
                    <polygon id="路径" fill="url(#linearGradient-19)" points="30.2490566 32.0724528 24.6218868 31.9215094 13.6527564 32.5531446 22.5026415 33.9260377"></polygon>
                    <polygon id="路径" fill="url(#linearGradient-20)" points="15.4447757 32.5011321 22.5026415 33.4249057 22.5026415 33.9260377 15.0973391 32.9237736"></polygon>
                    <path d="M5.49433962,23.5169811 C5.49433962,23.5169811 6.81660377,27.7615094 7.20301887,27.8943396 C7.58943396,28.0271698 13.9169811,30.6837736 14.6656604,30.72 C15.4143396,30.7562264 18.7290566,29.1803774 19.9969811,32.4950943 C20.0754717,32.8392453 20.1539623,33.074717 19.2241509,32.9962264 C18.3003774,32.9177358 16.8875472,32.5675472 15.909434,32.8754717 C14.9313208,33.1833962 14.5207547,32.6460377 13.6332075,32.6460377 C12.7456604,32.6460377 5.65735849,32.0301887 4.73358491,31.1426415 C3.80981132,30.2550943 2.69283019,28.6732075 2.11320755,25.2860377 C4.46792453,23.7886792 5.49433962,23.5169811 5.49433962,23.5169811 Z" id="路径" fill="#FECCA9"></path>
                    <path d="M6.88301887,24.2898113 L2.11320755,27.0067925 C2.11320755,27.0067925 -1.64226415,18.4815094 1.27396226,15.8188679 C2.19773585,15.04 4.7154717,16.1630189 5.63924528,19.0007547 C6.56301887,21.8324528 6.88301887,24.2898113 6.88301887,24.2898113 Z" id="路径" fill="url(#linearGradient-21)"></path>
                    <path d="M34.9162264,23.3116333 L25.1713208,23.5049057 C24.8935849,23.5109434 24.6520755,23.6981132 24.5796226,23.9698113 L22.170566,33.0566038 C22.0618868,33.4732075 22.4,33.8777358 22.8286792,33.8415094 L32.2233962,33.0445283 C32.4769811,33.0203774 32.6883019,32.8513208 32.7667925,32.6158491 L35.5260377,24.1328302 C35.6588679,23.7222642 35.3449057,23.3056604 34.9162264,23.3116333 Z" id="路径" fill="url(#linearGradient-22)"></path>
                </g>
                <polygon id="路径" fill="#E4EFFF" fill-rule="nonzero" points="424.193407 283.991909 421.925275 313.775463 405.112088 308.899628"></polygon>
                <polygon id="路径" fill="#F3F8FF" fill-rule="nonzero" points="424.193407 283.991909 438.303297 310.234207 421.925275 313.775463"></polygon>
            </g>
        </g>
    </g>
</svg>